<svg xmlns="http://www.w3.org/2000/svg" width="75.989" height="80" viewBox="0 0 75.989 80">
  <g id="bar-chart" transform="translate(-0.094)">
    <path id="Shape" d="M74.421,57.085H1.568a1.562,1.562,0,1,1,0-3.125H5.19V39.866a4.212,4.212,0,0,1,4.214-4.2h7.684a4.212,4.212,0,0,1,4.214,4.2V53.96h8.729V26.745a4.212,4.212,0,0,1,4.214-4.2h7.684a4.212,4.212,0,0,1,4.214,4.2V53.96h8.729V4.2A4.212,4.212,0,0,1,59.086,0H66.77a4.211,4.211,0,0,1,4.213,4.2V53.96h3.438a1.562,1.562,0,1,1,0,3.125ZM59.086,3.125A1.079,1.079,0,0,0,58.007,4.2V53.96h9.842V4.2A1.078,1.078,0,0,0,66.77,3.125ZM34.245,25.67a1.079,1.079,0,0,0-1.079,1.076V53.96h9.841V26.745a1.078,1.078,0,0,0-1.078-1.076ZM9.4,38.791a1.078,1.078,0,0,0-1.079,1.075V53.96h9.842V39.866a1.078,1.078,0,0,0-1.079-1.075Z" transform="translate(0.094 22.915)" fill="#0984e3"/>
    <path id="Path" d="M57.54,1.643A1.56,1.56,0,0,0,55.9,0c-.025,0-.05,0-.076,0H46.336a1.563,1.563,0,1,0,0,3.125h5.855L36.7,18.572l-5.843-5.825a1.571,1.571,0,0,0-2.217,0L.459,40.836a1.565,1.565,0,0,0,2.217,2.21L29.745,16.061l5.843,5.825a1.571,1.571,0,0,0,2.217,0l16.6-16.551v5.283a1.567,1.567,0,0,0,3.135,0v-8.9C57.543,1.693,57.541,1.668,57.54,1.643Z" transform="translate(13.534)" fill="#0984e3"/>
    <ellipse id="Oval" cx="1.567" cy="1.563" rx="1.567" ry="1.563" transform="translate(8.251 45.83)" fill="#0984e3"/>
  </g>
</svg>
