<?xml version="1.0" encoding="utf-8"?>
<!-- Generator: Adobe Illustrator 21.0.0, SVG Export Plug-In . SVG Version: 6.00 Build 0)  -->
<svg version="1.1" id="Layer_1" xmlns="http://www.w3.org/2000/svg" xmlns:xlink="http://www.w3.org/1999/xlink" x="0px" y="0px"
	 viewBox="0 0 101 32" style="enable-background:new 0 0 101 32;" xml:space="preserve">
<style type="text/css">
	.st0{fill:#0984E3;}
	.st1{enable-background:new    ;}
</style>
<g id="logo" transform="translate(-25 -15)">
	<g id="Group_1">
		<g id="Oval">
			<path class="st0" d="M35.5,41.5C29.7,41.5,25,36.8,25,31c0-5.8,4.7-10.5,10.5-10.5S46.1,25.2,46.1,31
				C46.1,36.8,41.4,41.5,35.5,41.5z M35.5,22.5c-4.7,0-8.5,3.8-8.5,8.5c0,4.7,3.8,8.5,8.5,8.5s8.5-3.8,8.5-8.5
				C44.1,26.3,40.3,22.5,35.5,22.5z"/>
		</g>
		<g id="Path">
			<path class="st0" d="M37.6,34c-0.3,0-0.5-0.1-0.7-0.3l-2-2c-0.2-0.2-0.3-0.4-0.3-0.7v-4.1c0-0.6,0.4-1,1-1s1,0.4,1,1v3.7l1.8,1.8
				c0.4,0.4,0.4,1,0,1.4C38.1,33.9,37.8,34,37.6,34z"/>
		</g>
		<g id="Path-2">
			<path class="st0" d="M38.5,47C38.5,47,38.5,47,38.5,47h-5.9c0,0,0,0,0,0c-1.9,0-3.5-1.5-3.7-3.4l-0.5-5.2c0-0.5,0.4-1,0.9-1.1
				c0.6-0.1,1,0.4,1.1,0.9l0.5,5.2c0.1,0.9,0.8,1.6,1.7,1.6c0,0,0,0,0,0h5.9c0,0,0,0,0,0c0.9,0,1.6-0.7,1.7-1.6l0.5-5.2
				c0.1-0.6,0.5-1,1.1-0.9c0.6,0.1,1,0.5,0.9,1.1l-0.5,5.2C42,45.5,40.4,47,38.5,47z"/>
		</g>
		<g id="Path-3">
			<path class="st0" d="M41.7,24.7c-0.5,0-0.9-0.4-1-0.9l-0.5-5.2c-0.1-0.9-0.8-1.6-1.7-1.6c0,0,0,0,0,0h-5.9
				c-0.9,0-1.6,0.7-1.7,1.6l-0.5,5.2c-0.1,0.6-0.5,1-1.1,0.9c-0.6,0-1-0.5-0.9-1.1l0.5-5.2c0.2-1.9,1.8-3.4,3.7-3.4h5.9c0,0,0,0,0,0
				c1.9,0,3.5,1.5,3.7,3.4l0.5,5.2C42.8,24.2,42.4,24.6,41.7,24.7C41.8,24.7,41.8,24.7,41.7,24.7z"/>
		</g>
	</g>
	<g class="st1">
		<path class="st0" d="M61.1,28.5c-0.3-0.3-0.5-0.7-0.5-1.1s0.2-0.8,0.5-1.1c0.3-0.3,0.7-0.4,1.3-0.4s0.9,0.1,1.3,0.4
			c0.3,0.3,0.5,0.6,0.5,1.1c0,0.5-0.2,0.8-0.5,1.1c-0.3,0.3-0.7,0.4-1.3,0.4S61.4,28.8,61.1,28.5z M60.9,29.9h2.9V38h-2.9V29.9z"/>
		<path class="st0" d="M82,27.5L78.6,38h-3.2l-2-6.4L71.3,38h-3.2l-3.4-10.5h3.1l2.1,6.7l2.2-6.7h2.7l2.1,6.8l2.2-6.8H82z"/>
		<path class="st0" d="M89.7,36h-4.4l-0.8,2h-3L86,27.5H89L93.6,38h-3.1L89.7,36z M88.8,33.8l-1.3-3.4l-1.4,3.4H88.8z"/>
		<path class="st0" d="M96.2,29.9h-3.2v-2.4h9.4v2.4h-3.2V38h-3V29.9z"/>
		<path class="st0" d="M105.6,37.5c-0.9-0.5-1.6-1.1-2.1-1.9s-0.8-1.8-0.8-2.8c0-1.1,0.3-2,0.8-2.8s1.2-1.5,2.1-1.9s1.9-0.7,3-0.7
			c1,0,1.8,0.2,2.6,0.5s1.4,0.8,1.9,1.5l-1.9,1.7c-0.7-0.8-1.5-1.2-2.5-1.2c-0.6,0-1.1,0.1-1.5,0.4c-0.4,0.3-0.8,0.6-1,1.1
			c-0.2,0.5-0.4,1-0.4,1.6s0.1,1.1,0.4,1.6c0.2,0.5,0.6,0.8,1,1.1c0.4,0.3,1,0.4,1.5,0.4c1,0,1.8-0.4,2.5-1.2l1.9,1.7
			c-0.5,0.6-1.2,1.1-1.9,1.5s-1.6,0.5-2.6,0.5C107.4,38.2,106.5,38,105.6,37.5z"/>
		<path class="st0" d="M124.4,27.5V38h-3v-4.1h-4V38h-3V27.5h3v3.9h4v-3.9H124.4z"/>
	</g>
</g>
</svg>
