<?xml version="1.0" encoding="utf-8"?>
<!-- Generator: Adobe Illustrator 21.0.0, SVG Export Plug-In . SVG Version: 6.00 Build 0)  -->
<svg version="1.1" id="Layer_1" xmlns="http://www.w3.org/2000/svg" xmlns:xlink="http://www.w3.org/1999/xlink" x="0px" y="0px"
	 viewBox="0 0 21.1 32" style="enable-background:new 0 0 21.1 32;" xml:space="preserve">
<style type="text/css">
	.st0{fill:#0984E3;}
</style>
<g id="logo-icon" transform="translate(-18 -11)">
	<g id="Oval">
		<path class="st0" d="M28.5,37.5C22.7,37.5,18,32.8,18,27c0-5.8,4.7-10.5,10.5-10.5S39.1,21.2,39.1,27
			C39.1,32.8,34.4,37.5,28.5,37.5z M28.5,18.5c-4.7,0-8.5,3.8-8.5,8.5c0,4.7,3.8,8.5,8.5,8.5s8.5-3.8,8.5-8.5
			C37.1,22.3,33.3,18.5,28.5,18.5z"/>
	</g>
	<g id="Path">
		<path class="st0" d="M30.6,30c-0.3,0-0.5-0.1-0.7-0.3l-2-2c-0.2-0.2-0.3-0.4-0.3-0.7v-4.1c0-0.6,0.4-1,1-1s1,0.4,1,1v3.7l1.8,1.8
			c0.4,0.4,0.4,1,0,1.4C31.1,29.9,30.8,30,30.6,30z"/>
	</g>
	<g id="Path-2">
		<path class="st0" d="M31.5,43C31.5,43,31.5,43,31.5,43h-5.9c0,0,0,0,0,0c-1.9,0-3.5-1.5-3.7-3.4l-0.5-5.2c0-0.5,0.4-1,0.9-1.1
			c0.5-0.1,1,0.4,1.1,0.9l0.5,5.2c0.1,0.9,0.8,1.6,1.7,1.6c0,0,0,0,0,0h5.9c0,0,0,0,0,0c0.9,0,1.6-0.7,1.7-1.6l0.5-5.2
			c0.1-0.5,0.5-1,1.1-0.9c0.5,0.1,1,0.5,0.9,1.1l-0.5,5.2C35,41.5,33.4,43,31.5,43z"/>
	</g>
	<g id="Path-3">
		<path class="st0" d="M34.7,20.7c-0.5,0-0.9-0.4-1-0.9l-0.5-5.2c-0.1-0.9-0.8-1.6-1.7-1.6c0,0,0,0,0,0h-5.9c-0.9,0-1.6,0.7-1.7,1.6
			l-0.5,5.2c0,0.6-0.5,1-1.1,0.9c-0.6,0-1-0.5-0.9-1.1l0.5-5.2c0.2-1.9,1.8-3.4,3.7-3.4h5.9c0,0,0,0,0,0c1.9,0,3.5,1.5,3.7,3.4
			l0.5,5.2C35.8,20.2,35.4,20.6,34.7,20.7C34.8,20.7,34.8,20.7,34.7,20.7z"/>
	</g>
</g>
</svg>
