<svg xmlns="http://www.w3.org/2000/svg" width="235.548" height="135.548" viewBox="0 0 235.548 135.548">
  <g id="new-watch-mobile" transform="translate(0 0.548)">
    <g id="tutorials" transform="translate(0 55)">
      <g id="book-2">
        <path id="Shape" d="M40,80a6.472,6.472,0,0,1-6.321-5.161H6.451A6.459,6.459,0,0,1,0,68.385V30.965H5.161V20.642h27.1a8.979,8.979,0,0,1,4.511,1.215A9.143,9.143,0,0,1,40,25.047a9.149,9.149,0,0,1,3.231-3.189,8.98,8.98,0,0,1,4.511-1.215h2.193a15.714,15.714,0,0,1-.714-7.617A15.487,15.487,0,0,1,80,15.482a15.539,15.539,0,0,1-6.289,12.445,3.261,3.261,0,0,0-.577.566,3.852,3.852,0,0,1,2.758,2.472H80V68.385a6.459,6.459,0,0,1-6.452,6.452H46.321A6.471,6.471,0,0,1,40,80ZM2.58,33.546V68.385a3.875,3.875,0,0,0,3.871,3.871H36.129v1.291a3.871,3.871,0,0,0,7.743,0V72.256H73.548a3.875,3.875,0,0,0,3.871-3.871V33.546H75.892a3.874,3.874,0,0,1-1.053,1.574V69.675H5.161V33.546ZM47.742,23.224a6.459,6.459,0,0,0-6.452,6.451V67.094H72.258V36.127h-.131a6.475,6.475,0,0,1-6.322,5.162h-2.58A6.474,6.474,0,0,1,56.9,36.127h-.131a3.866,3.866,0,0,1-.887-7.63,3.559,3.559,0,0,0-.622-.613,15.393,15.393,0,0,1-4.145-4.66Zm-40,0V67.094H38.71V29.675a6.459,6.459,0,0,0-6.452-6.451Zm51.851,12.9a3.874,3.874,0,0,0,3.633,2.58h2.58a3.876,3.876,0,0,0,3.634-2.58Zm-2.819-5.162a1.29,1.29,0,0,0,0,2.58H72.258a1.29,1.29,0,0,0,0-2.58ZM64.517,10.32a5.15,5.15,0,0,1,1.29,10.139v7.925h4.4a6.083,6.083,0,0,1,1.968-2.534,12.783,12.783,0,0,0,5.242-10.37,12.929,12.929,0,0,0-4.3-9.621,12.693,12.693,0,0,0-8.587-3.284,13.6,13.6,0,0,0-1.5.084,12.894,12.894,0,0,0-6.22,23.154,6.284,6.284,0,0,1,2.008,2.569h4.412V20.46A5.15,5.15,0,0,1,64.517,10.32Zm0,2.58a2.581,2.581,0,1,0,2.58,2.581A2.584,2.584,0,0,0,64.517,12.9Z" transform="translate(0 0.002)" fill="#00b894"/>
        <path id="Shape-2" data-name="Shape" d="M25.807,18.065H0V0H25.807V18.064ZM2.58,2.58v12.9H23.225V2.58Z" transform="translate(10.323 25.806)" fill="#00b894"/>
        <path id="Shape-3" data-name="Shape" d="M25.807,15.484H0V0H25.807V15.483ZM2.58,2.58V12.9H23.225V2.58Z" transform="translate(43.871 43.871)" fill="#00b894"/>
        <path id="Path" d="M0,0H25.806V2.581H0Z" transform="translate(10.323 46.452)" fill="#00b894"/>
        <path id="Path-2" data-name="Path" d="M0,0H25.806V2.581H0Z" transform="translate(10.323 51.613)" fill="#00b894"/>
        <path id="Path-3" data-name="Path" d="M0,0H25.806V2.581H0Z" transform="translate(10.323 56.774)" fill="#00b894"/>
        <path id="Path-4" data-name="Path" d="M0,0H10.323V2.581H0Z" transform="translate(43.871 38.71)" fill="#00b894"/>
        <path id="Path-5" data-name="Path" d="M2.581,7.374a7.682,7.682,0,0,1,2.325-5.53L3.1,0A10.244,10.244,0,0,0,0,7.374,10.411,10.411,0,0,0,.1,8.848l2.555-.366a7.929,7.929,0,0,1-.079-1.107Z" transform="translate(54.194 8.11)" fill="#00b894"/>
      </g>
    </g>
    <path id="Line" d="M196.076,0s-4,39.34-58,39.34S-2.924-8.234.076,43" transform="translate(38.924)" fill="none" stroke="rgba(0,184,148,0.39)" stroke-linecap="square" stroke-miterlimit="10" stroke-width="1" stroke-dasharray="1 10"/>
  </g>
</svg>
