<svg xmlns="http://www.w3.org/2000/svg" xmlns:xlink="http://www.w3.org/1999/xlink" width="152" height="150" viewBox="0 0 152 150">
  <defs>
    <clipPath id="clip-path">
      <rect id="Rectangle_3" data-name="Rectangle 3" width="152" height="150" transform="translate(-6569 -1763.5)" fill="#fff"/>
    </clipPath>
    <clipPath id="clip-path-2">
      <rect id="Mask" width="1440" height="365" fill="#1b1b1b"/>
    </clipPath>
  </defs>
  <g id="pattern-two6" transform="translate(6569 1763.5)" clip-path="url(#clip-path)">
    <g id="background_pattern_2" data-name="background pattern 2" transform="translate(-6569 -1763.5)">
      <rect id="Mask-2" data-name="Mask" width="1440" height="365" fill="#1b1b1b"/>
      <g id="background_pattern_2-2" data-name="background pattern 2" clip-path="url(#clip-path-2)">
        <g id="Group_5" data-name="Group 5" transform="translate(-200)">
          <g id="Group_4" data-name="Group 4" opacity="0.11">
            <g id="Group_3" data-name="Group 3" transform="translate(0 1)">
              <g id="temple">
                <path id="Shape" d="M152,152H0v-2H28v-8H8V122H0v-2H8V80H50v20H70v42H30v8h90v-8H80V100h20V80h42v40h8V30h-8V70H100V50H80V8h40V0h2V8h20V28h8V0h2Zm-30-10v8h28V122h-8v20Zm0-20v18h18V122Zm-40,0v18h38V120h20V82H122v20H102v20ZM10,82v38H30v20H68V122H48V102H28V82Zm0,40v18H28V122Zm72-20v18h18V102Zm-32,0v18H68V102Zm52-20v18h18V82ZM30,82v18H48V82ZM82,10V28h20V48h20V68h18V30H120V10Zm20,40V68h18V50ZM82,30V48h18V30Zm40-20V28h18V10ZM50,70H8V30H0V28H8V8H28V0h2V8H70V50H50ZM30,50V68H48V50ZM10,30V68H28V48H48V28H68V10H30V30Zm40,0V48H68V30ZM10,10V28H28V10Z"/>
              </g>
              <g id="temple_copy" data-name="temple copy" transform="translate(0 149)">
                <path id="Shape-2" data-name="Shape" d="M152,152H0v-2H28v-8H8V122H0v-2H8V80H50v20H70v42H30v8h90v-8H80V100h20V80h42v40h8V30h-8V70H100V50H80V8h40V0h2V8h20V28h8V0h2Zm-30-10v8h28V122h-8v20Zm0-20v18h18V122Zm-40,0v18h38V120h20V82H122v20H102v20ZM10,82v38H30v20H68V122H48V102H28V82Zm0,40v18H28V122Zm72-20v18h18V102Zm-32,0v18H68V102Zm52-20v18h18V82ZM30,82v18H48V82ZM82,10V28h20V48h20V68h18V30H120V10Zm20,40V68h18V50ZM82,30V48h18V30Zm40-20V28h18V10ZM50,70H8V30H0V28H8V8H28V0h2V8H70V50H50ZM30,50V68H48V50ZM10,30V68H28V48H48V28H68V10H30V30Zm40,0V48H68V30ZM10,10V28H28V10Z"/>
              </g>
              <g id="temple_copy_2" data-name="temple copy 2" transform="translate(152 149)">
                <path id="Shape-3" data-name="Shape" d="M152,152H0v-2H28v-8H8V122H0v-2H8V80H50v20H70v42H30v8h90v-8H80V100h20V80h42v40h8V30h-8V70H100V50H80V8h40V0h2V8h20V28h8V0h2Zm-30-10v8h28V122h-8v20Zm0-20v18h18V122Zm-40,0v18h38V120h20V82H122v20H102v20ZM10,82v38H30v20H68V122H48V102H28V82Zm0,40v18H28V122Zm72-20v18h18V102Zm-32,0v18H68V102Zm52-20v18h18V82ZM30,82v18H48V82ZM82,10V28h20V48h20V68h18V30H120V10Zm20,40V68h18V50ZM82,30V48h18V30Zm40-20V28h18V10ZM50,70H8V30H0V28H8V8H28V0h2V8H70V50H50ZM30,50V68H48V50ZM10,30V68H28V48H48V28H68V10H30V30Zm40,0V48H68V30ZM10,10V28H28V10Z"/>
              </g>
              <g id="temple_copy_3" data-name="temple copy 3" transform="translate(152)">
                <path id="Shape-4" data-name="Shape" d="M152,152H0v-2H28v-8H8V122H0v-2H8V80H50v20H70v42H30v8h90v-8H80V100h20V80h42v40h8V30h-8V70H100V50H80V8h40V0h2V8h20V28h8V0h2Zm-30-10v8h28V122h-8v20Zm0-20v18h18V122Zm-40,0v18h38V120h20V82H122v20H102v20ZM10,82v38H30v20H68V122H48V102H28V82Zm0,40v18H28V122Zm72-20v18h18V102Zm-32,0v18H68V102Zm52-20v18h18V82ZM30,82v18H48V82ZM82,10V28h20V48h20V68h18V30H120V10Zm20,40V68h18V50ZM82,30V48h18V30Zm40-20V28h18V10ZM50,70H8V30H0V28H8V8H28V0h2V8H70V50H50ZM30,50V68H48V50ZM10,30V68H28V48H48V28H68V10H30V30Zm40,0V48H68V30ZM10,10V28H28V10Z"/>
              </g>
              <rect id="Rectangle_21" data-name="Rectangle 21" width="20" height="20" transform="translate(201 29)"/>
              <rect id="Rectangle_22" data-name="Rectangle 22" width="20" height="20" transform="translate(313 9)"/>
              <rect id="Rectangle_23" data-name="Rectangle 23" width="20" height="20" transform="translate(273 121)"/>
            </g>
            <g id="Group_3_Copy_2" data-name="Group 3 Copy 2" transform="translate(608)">
              <g id="temple-2" data-name="temple">
                <path id="Shape-5" data-name="Shape" d="M152,152H0v-2H28v-8H8V122H0v-2H8V80H50v20H70v42H30v8h90v-8H80V100h20V80h42v40h8V30h-8V70H100V50H80V8h40V0h2V8h20V28h8V0h2Zm-30-10v8h28V122h-8v20Zm0-20v18h18V122Zm-40,0v18h38V120h20V82H122v20H102v20ZM10,82v38H30v20H68V122H48V102H28V82Zm0,40v18H28V122Zm72-20v18h18V102Zm-32,0v18H68V102Zm52-20v18h18V82ZM30,82v18H48V82ZM82,10V28h20V48h20V68h18V30H120V10Zm20,40V68h18V50ZM82,30V48h18V30Zm40-20V28h18V10ZM50,70H8V30H0V28H8V8H28V0h2V8H70V50H50ZM30,50V68H48V50ZM10,30V68H28V48H48V28H68V10H30V30Zm40,0V48H68V30ZM10,10V28H28V10Z"/>
              </g>
              <g id="temple_copy-2" data-name="temple copy" transform="translate(0 149)">
                <path id="Shape-6" data-name="Shape" d="M152,152H0v-2H28v-8H8V122H0v-2H8V80H50v20H70v42H30v8h90v-8H80V100h20V80h42v40h8V30h-8V70H100V50H80V8h40V0h2V8h20V28h8V0h2Zm-30-10v8h28V122h-8v20Zm0-20v18h18V122Zm-40,0v18h38V120h20V82H122v20H102v20ZM10,82v38H30v20H68V122H48V102H28V82Zm0,40v18H28V122Zm72-20v18h18V102Zm-32,0v18H68V102Zm52-20v18h18V82ZM30,82v18H48V82ZM82,10V28h20V48h20V68h18V30H120V10Zm20,40V68h18V50ZM82,30V48h18V30Zm40-20V28h18V10ZM50,70H8V30H0V28H8V8H28V0h2V8H70V50H50ZM30,50V68H48V50ZM10,30V68H28V48H48V28H68V10H30V30Zm40,0V48H68V30ZM10,10V28H28V10Z"/>
              </g>
              <g id="temple_copy_2-2" data-name="temple copy 2" transform="translate(152 149)">
                <path id="Shape-7" data-name="Shape" d="M152,152H0v-2H28v-8H8V122H0v-2H8V80H50v20H70v42H30v8h90v-8H80V100h20V80h42v40h8V30h-8V70H100V50H80V8h40V0h2V8h20V28h8V0h2Zm-30-10v8h28V122h-8v20Zm0-20v18h18V122Zm-40,0v18h38V120h20V82H122v20H102v20ZM10,82v38H30v20H68V122H48V102H28V82Zm0,40v18H28V122Zm72-20v18h18V102Zm-32,0v18H68V102Zm52-20v18h18V82ZM30,82v18H48V82ZM82,10V28h20V48h20V68h18V30H120V10Zm20,40V68h18V50ZM82,30V48h18V30Zm40-20V28h18V10ZM50,70H8V30H0V28H8V8H28V0h2V8H70V50H50ZM30,50V68H48V50ZM10,30V68H28V48H48V28H68V10H30V30Zm40,0V48H68V30ZM10,10V28H28V10Z"/>
              </g>
              <g id="temple_copy_3-2" data-name="temple copy 3" transform="translate(152)">
                <path id="Shape-8" data-name="Shape" d="M152,152H0v-2H28v-8H8V122H0v-2H8V80H50v20H70v42H30v8h90v-8H80V100h20V80h42v40h8V30h-8V70H100V50H80V8h40V0h2V8h20V28h8V0h2Zm-30-10v8h28V122h-8v20Zm0-20v18h18V122Zm-40,0v18h38V120h20V82H122v20H102v20ZM10,82v38H30v20H68V122H48V102H28V82Zm0,40v18H28V122Zm72-20v18h18V102Zm-32,0v18H68V102Zm52-20v18h18V82ZM30,82v18H48V82ZM82,10V28h20V48h20V68h18V30H120V10Zm20,40V68h18V50ZM82,30V48h18V30Zm40-20V28h18V10ZM50,70H8V30H0V28H8V8H28V0h2V8H70V50H50ZM30,50V68H48V50ZM10,30V68H28V48H48V28H68V10H30V30Zm40,0V48H68V30ZM10,10V28H28V10Z"/>
              </g>
            </g>
            <g id="Group_3_Copy_4" data-name="Group 3 Copy 4" transform="translate(1216)">
              <g id="temple-3" data-name="temple">
                <path id="Shape-9" data-name="Shape" d="M152,152H0v-2H28v-8H8V122H0v-2H8V80H50v20H70v42H30v8h90v-8H80V100h20V80h42v40h8V30h-8V70H100V50H80V8h40V0h2V8h20V28h8V0h2Zm-30-10v8h28V122h-8v20Zm0-20v18h18V122Zm-40,0v18h38V120h20V82H122v20H102v20ZM10,82v38H30v20H68V122H48V102H28V82Zm0,40v18H28V122Zm72-20v18h18V102Zm-32,0v18H68V102Zm52-20v18h18V82ZM30,82v18H48V82ZM82,10V28h20V48h20V68h18V30H120V10Zm20,40V68h18V50ZM82,30V48h18V30Zm40-20V28h18V10ZM50,70H8V30H0V28H8V8H28V0h2V8H70V50H50ZM30,50V68H48V50ZM10,30V68H28V48H48V28H68V10H30V30Zm40,0V48H68V30ZM10,10V28H28V10Z"/>
              </g>
              <g id="temple_copy-3" data-name="temple copy" transform="translate(0 149)">
                <path id="Shape-10" data-name="Shape" d="M152,152H0v-2H28v-8H8V122H0v-2H8V80H50v20H70v42H30v8h90v-8H80V100h20V80h42v40h8V30h-8V70H100V50H80V8h40V0h2V8h20V28h8V0h2Zm-30-10v8h28V122h-8v20Zm0-20v18h18V122Zm-40,0v18h38V120h20V82H122v20H102v20ZM10,82v38H30v20H68V122H48V102H28V82Zm0,40v18H28V122Zm72-20v18h18V102Zm-32,0v18H68V102Zm52-20v18h18V82ZM30,82v18H48V82ZM82,10V28h20V48h20V68h18V30H120V10Zm20,40V68h18V50ZM82,30V48h18V30Zm40-20V28h18V10ZM50,70H8V30H0V28H8V8H28V0h2V8H70V50H50ZM30,50V68H48V50ZM10,30V68H28V48H48V28H68V10H30V30Zm40,0V48H68V30ZM10,10V28H28V10Z"/>
              </g>
              <g id="temple_copy_2-3" data-name="temple copy 2" transform="translate(152 149)">
                <path id="Shape-11" data-name="Shape" d="M152,152H0v-2H28v-8H8V122H0v-2H8V80H50v20H70v42H30v8h90v-8H80V100h20V80h42v40h8V30h-8V70H100V50H80V8h40V0h2V8h20V28h8V0h2Zm-30-10v8h28V122h-8v20Zm0-20v18h18V122Zm-40,0v18h38V120h20V82H122v20H102v20ZM10,82v38H30v20H68V122H48V102H28V82Zm0,40v18H28V122Zm72-20v18h18V102Zm-32,0v18H68V102Zm52-20v18h18V82ZM30,82v18H48V82ZM82,10V28h20V48h20V68h18V30H120V10Zm20,40V68h18V50ZM82,30V48h18V30Zm40-20V28h18V10ZM50,70H8V30H0V28H8V8H28V0h2V8H70V50H50ZM30,50V68H48V50ZM10,30V68H28V48H48V28H68V10H30V30Zm40,0V48H68V30ZM10,10V28H28V10Z"/>
              </g>
              <g id="temple_copy_3-3" data-name="temple copy 3" transform="translate(152)">
                <path id="Shape-12" data-name="Shape" d="M152,152H0v-2H28v-8H8V122H0v-2H8V80H50v20H70v42H30v8h90v-8H80V100h20V80h42v40h8V30h-8V70H100V50H80V8h40V0h2V8h20V28h8V0h2Zm-30-10v8h28V122h-8v20Zm0-20v18h18V122Zm-40,0v18h38V120h20V82H122v20H102v20ZM10,82v38H30v20H68V122H48V102H28V82Zm0,40v18H28V122Zm72-20v18h18V102Zm-32,0v18H68V102Zm52-20v18h18V82ZM30,82v18H48V82ZM82,10V28h20V48h20V68h18V30H120V10Zm20,40V68h18V50ZM82,30V48h18V30Zm40-20V28h18V10ZM50,70H8V30H0V28H8V8H28V0h2V8H70V50H50ZM30,50V68H48V50ZM10,30V68H28V48H48V28H68V10H30V30Zm40,0V48H68V30ZM10,10V28H28V10Z"/>
              </g>
            </g>
            <g id="Group_3_Copy" data-name="Group 3 Copy" transform="translate(304 1)">
              <g id="temple-4" data-name="temple">
                <path id="Shape-13" data-name="Shape" d="M152,152H0v-2H28v-8H8V122H0v-2H8V80H50v20H70v42H30v8h90v-8H80V100h20V80h42v40h8V30h-8V70H100V50H80V8h40V0h2V8h20V28h8V0h2Zm-30-10v8h28V122h-8v20Zm0-20v18h18V122Zm-40,0v18h38V120h20V82H122v20H102v20ZM10,82v38H30v20H68V122H48V102H28V82Zm0,40v18H28V122Zm72-20v18h18V102Zm-32,0v18H68V102Zm52-20v18h18V82ZM30,82v18H48V82ZM82,10V28h20V48h20V68h18V30H120V10Zm20,40V68h18V50ZM82,30V48h18V30Zm40-20V28h18V10ZM50,70H8V30H0V28H8V8H28V0h2V8H70V50H50ZM30,50V68H48V50ZM10,30V68H28V48H48V28H68V10H30V30Zm40,0V48H68V30ZM10,10V28H28V10Z"/>
              </g>
              <g id="temple_copy-4" data-name="temple copy" transform="translate(0 149)">
                <path id="Shape-14" data-name="Shape" d="M152,152H0v-2H28v-8H8V122H0v-2H8V80H50v20H70v42H30v8h90v-8H80V100h20V80h42v40h8V30h-8V70H100V50H80V8h40V0h2V8h20V28h8V0h2Zm-30-10v8h28V122h-8v20Zm0-20v18h18V122Zm-40,0v18h38V120h20V82H122v20H102v20ZM10,82v38H30v20H68V122H48V102H28V82Zm0,40v18H28V122Zm72-20v18h18V102Zm-32,0v18H68V102Zm52-20v18h18V82ZM30,82v18H48V82ZM82,10V28h20V48h20V68h18V30H120V10Zm20,40V68h18V50ZM82,30V48h18V30Zm40-20V28h18V10ZM50,70H8V30H0V28H8V8H28V0h2V8H70V50H50ZM30,50V68H48V50ZM10,30V68H28V48H48V28H68V10H30V30Zm40,0V48H68V30ZM10,10V28H28V10Z"/>
              </g>
              <g id="temple_copy_2-4" data-name="temple copy 2" transform="translate(152 149)">
                <path id="Shape-15" data-name="Shape" d="M152,152H0v-2H28v-8H8V122H0v-2H8V80H50v20H70v42H30v8h90v-8H80V100h20V80h42v40h8V30h-8V70H100V50H80V8h40V0h2V8h20V28h8V0h2Zm-30-10v8h28V122h-8v20Zm0-20v18h18V122Zm-40,0v18h38V120h20V82H122v20H102v20ZM10,82v38H30v20H68V122H48V102H28V82Zm0,40v18H28V122Zm72-20v18h18V102Zm-32,0v18H68V102Zm52-20v18h18V82ZM30,82v18H48V82ZM82,10V28h20V48h20V68h18V30H120V10Zm20,40V68h18V50ZM82,30V48h18V30Zm40-20V28h18V10ZM50,70H8V30H0V28H8V8H28V0h2V8H70V50H50ZM30,50V68H48V50ZM10,30V68H28V48H48V28H68V10H30V30Zm40,0V48H68V30ZM10,10V28H28V10Z"/>
              </g>
              <g id="temple_copy_3-4" data-name="temple copy 3" transform="translate(152)">
                <path id="Shape-16" data-name="Shape" d="M152,152H0v-2H28v-8H8V122H0v-2H8V80H50v20H70v42H30v8h90v-8H80V100h20V80h42v40h8V30h-8V70H100V50H80V8h40V0h2V8h20V28h8V0h2Zm-30-10v8h28V122h-8v20Zm0-20v18h18V122Zm-40,0v18h38V120h20V82H122v20H102v20ZM10,82v38H30v20H68V122H48V102H28V82Zm0,40v18H28V122Zm72-20v18h18V102Zm-32,0v18H68V102Zm52-20v18h18V82ZM30,82v18H48V82ZM82,10V28h20V48h20V68h18V30H120V10Zm20,40V68h18V50ZM82,30V48h18V30Zm40-20V28h18V10ZM50,70H8V30H0V28H8V8H28V0h2V8H70V50H50ZM30,50V68H48V50ZM10,30V68H28V48H48V28H68V10H30V30Zm40,0V48H68V30ZM10,10V28H28V10Z"/>
              </g>
            </g>
            <g id="Group_3_Copy_3" data-name="Group 3 Copy 3" transform="translate(912)">
              <g id="temple-5" data-name="temple">
                <path id="Shape-17" data-name="Shape" d="M152,152H0v-2H28v-8H8V122H0v-2H8V80H50v20H70v42H30v8h90v-8H80V100h20V80h42v40h8V30h-8V70H100V50H80V8h40V0h2V8h20V28h8V0h2Zm-30-10v8h28V122h-8v20Zm0-20v18h18V122Zm-40,0v18h38V120h20V82H122v20H102v20ZM10,82v38H30v20H68V122H48V102H28V82Zm0,40v18H28V122Zm72-20v18h18V102Zm-32,0v18H68V102Zm52-20v18h18V82ZM30,82v18H48V82ZM82,10V28h20V48h20V68h18V30H120V10Zm20,40V68h18V50ZM82,30V48h18V30Zm40-20V28h18V10ZM50,70H8V30H0V28H8V8H28V0h2V8H70V50H50ZM30,50V68H48V50ZM10,30V68H28V48H48V28H68V10H30V30Zm40,0V48H68V30ZM10,10V28H28V10Z"/>
              </g>
              <g id="temple_copy-5" data-name="temple copy" transform="translate(0 149)">
                <path id="Shape-18" data-name="Shape" d="M152,152H0v-2H28v-8H8V122H0v-2H8V80H50v20H70v42H30v8h90v-8H80V100h20V80h42v40h8V30h-8V70H100V50H80V8h40V0h2V8h20V28h8V0h2Zm-30-10v8h28V122h-8v20Zm0-20v18h18V122Zm-40,0v18h38V120h20V82H122v20H102v20ZM10,82v38H30v20H68V122H48V102H28V82Zm0,40v18H28V122Zm72-20v18h18V102Zm-32,0v18H68V102Zm52-20v18h18V82ZM30,82v18H48V82ZM82,10V28h20V48h20V68h18V30H120V10Zm20,40V68h18V50ZM82,30V48h18V30Zm40-20V28h18V10ZM50,70H8V30H0V28H8V8H28V0h2V8H70V50H50ZM30,50V68H48V50ZM10,30V68H28V48H48V28H68V10H30V30Zm40,0V48H68V30ZM10,10V28H28V10Z"/>
              </g>
              <g id="temple_copy_2-5" data-name="temple copy 2" transform="translate(152 149)">
                <path id="Shape-19" data-name="Shape" d="M152,152H0v-2H28v-8H8V122H0v-2H8V80H50v20H70v42H30v8h90v-8H80V100h20V80h42v40h8V30h-8V70H100V50H80V8h40V0h2V8h20V28h8V0h2Zm-30-10v8h28V122h-8v20Zm0-20v18h18V122Zm-40,0v18h38V120h20V82H122v20H102v20ZM10,82v38H30v20H68V122H48V102H28V82Zm0,40v18H28V122Zm72-20v18h18V102Zm-32,0v18H68V102Zm52-20v18h18V82ZM30,82v18H48V82ZM82,10V28h20V48h20V68h18V30H120V10Zm20,40V68h18V50ZM82,30V48h18V30Zm40-20V28h18V10ZM50,70H8V30H0V28H8V8H28V0h2V8H70V50H50ZM30,50V68H48V50ZM10,30V68H28V48H48V28H68V10H30V30Zm40,0V48H68V30ZM10,10V28H28V10Z"/>
              </g>
              <g id="temple_copy_3-5" data-name="temple copy 3" transform="translate(152)">
                <path id="Shape-20" data-name="Shape" d="M152,152H0v-2H28v-8H8V122H0v-2H8V80H50v20H70v42H30v8h90v-8H80V100h20V80h42v40h8V30h-8V70H100V50H80V8h40V0h2V8h20V28h8V0h2Zm-30-10v8h28V122h-8v20Zm0-20v18h18V122Zm-40,0v18h38V120h20V82H122v20H102v20ZM10,82v38H30v20H68V122H48V102H28V82Zm0,40v18H28V122Zm72-20v18h18V102Zm-32,0v18H68V102Zm52-20v18h18V82ZM30,82v18H48V82ZM82,10V28h20V48h20V68h18V30H120V10Zm20,40V68h18V50ZM82,30V48h18V30Zm40-20V28h18V10ZM50,70H8V30H0V28H8V8H28V0h2V8H70V50H50ZM30,50V68H48V50ZM10,30V68H28V48H48V28H68V10H30V30Zm40,0V48H68V30ZM10,10V28H28V10Z"/>
              </g>
            </g>
            <g id="Group_3_Copy_5" data-name="Group 3 Copy 5" transform="translate(1520)">
              <g id="temple-6" data-name="temple">
                <path id="Shape-21" data-name="Shape" d="M152,152H0v-2H28v-8H8V122H0v-2H8V80H50v20H70v42H30v8h90v-8H80V100h20V80h42v40h8V30h-8V70H100V50H80V8h40V0h2V8h20V28h8V0h2Zm-30-10v8h28V122h-8v20Zm0-20v18h18V122Zm-40,0v18h38V120h20V82H122v20H102v20ZM10,82v38H30v20H68V122H48V102H28V82Zm0,40v18H28V122Zm72-20v18h18V102Zm-32,0v18H68V102Zm52-20v18h18V82ZM30,82v18H48V82ZM82,10V28h20V48h20V68h18V30H120V10Zm20,40V68h18V50ZM82,30V48h18V30Zm40-20V28h18V10ZM50,70H8V30H0V28H8V8H28V0h2V8H70V50H50ZM30,50V68H48V50ZM10,30V68H28V48H48V28H68V10H30V30Zm40,0V48H68V30ZM10,10V28H28V10Z"/>
              </g>
              <g id="temple_copy-6" data-name="temple copy" transform="translate(0 149)">
                <path id="Shape-22" data-name="Shape" d="M152,152H0v-2H28v-8H8V122H0v-2H8V80H50v20H70v42H30v8h90v-8H80V100h20V80h42v40h8V30h-8V70H100V50H80V8h40V0h2V8h20V28h8V0h2Zm-30-10v8h28V122h-8v20Zm0-20v18h18V122Zm-40,0v18h38V120h20V82H122v20H102v20ZM10,82v38H30v20H68V122H48V102H28V82Zm0,40v18H28V122Zm72-20v18h18V102Zm-32,0v18H68V102Zm52-20v18h18V82ZM30,82v18H48V82ZM82,10V28h20V48h20V68h18V30H120V10Zm20,40V68h18V50ZM82,30V48h18V30Zm40-20V28h18V10ZM50,70H8V30H0V28H8V8H28V0h2V8H70V50H50ZM30,50V68H48V50ZM10,30V68H28V48H48V28H68V10H30V30Zm40,0V48H68V30ZM10,10V28H28V10Z"/>
              </g>
              <g id="temple_copy_2-6" data-name="temple copy 2" transform="translate(152 149)">
                <path id="Shape-23" data-name="Shape" d="M152,152H0v-2H28v-8H8V122H0v-2H8V80H50v20H70v42H30v8h90v-8H80V100h20V80h42v40h8V30h-8V70H100V50H80V8h40V0h2V8h20V28h8V0h2Zm-30-10v8h28V122h-8v20Zm0-20v18h18V122Zm-40,0v18h38V120h20V82H122v20H102v20ZM10,82v38H30v20H68V122H48V102H28V82Zm0,40v18H28V122Zm72-20v18h18V102Zm-32,0v18H68V102Zm52-20v18h18V82ZM30,82v18H48V82ZM82,10V28h20V48h20V68h18V30H120V10Zm20,40V68h18V50ZM82,30V48h18V30Zm40-20V28h18V10ZM50,70H8V30H0V28H8V8H28V0h2V8H70V50H50ZM30,50V68H48V50ZM10,30V68H28V48H48V28H68V10H30V30Zm40,0V48H68V30ZM10,10V28H28V10Z"/>
              </g>
              <g id="temple_copy_3-6" data-name="temple copy 3" transform="translate(152)">
                <path id="Shape-24" data-name="Shape" d="M152,152H0v-2H28v-8H8V122H0v-2H8V80H50v20H70v42H30v8h90v-8H80V100h20V80h42v40h8V30h-8V70H100V50H80V8h40V0h2V8h20V28h8V0h2Zm-30-10v8h28V122h-8v20Zm0-20v18h18V122Zm-40,0v18h38V120h20V82H122v20H102v20ZM10,82v38H30v20H68V122H48V102H28V82Zm0,40v18H28V122Zm72-20v18h18V102Zm-32,0v18H68V102Zm52-20v18h18V82ZM30,82v18H48V82ZM82,10V28h20V48h20V68h18V30H120V10Zm20,40V68h18V50ZM82,30V48h18V30Zm40-20V28h18V10ZM50,70H8V30H0V28H8V8H28V0h2V8H70V50H50ZM30,50V68H48V50ZM10,30V68H28V48H48V28H68V10H30V30Zm40,0V48H68V30ZM10,10V28H28V10Z"/>
              </g>
            </g>
          </g>
          <g id="Group_4_Copy" data-name="Group 4 Copy" transform="translate(0 302)" opacity="0.11">
            <g id="Group_3-2" data-name="Group 3" transform="translate(0 1)">
              <g id="temple-7" data-name="temple">
                <path id="Shape-25" data-name="Shape" d="M152,152H0v-2H28v-8H8V122H0v-2H8V80H50v20H70v42H30v8h90v-8H80V100h20V80h42v40h8V30h-8V70H100V50H80V8h40V0h2V8h20V28h8V0h2Zm-30-10v8h28V122h-8v20Zm0-20v18h18V122Zm-40,0v18h38V120h20V82H122v20H102v20ZM10,82v38H30v20H68V122H48V102H28V82Zm0,40v18H28V122Zm72-20v18h18V102Zm-32,0v18H68V102Zm52-20v18h18V82ZM30,82v18H48V82ZM82,10V28h20V48h20V68h18V30H120V10Zm20,40V68h18V50ZM82,30V48h18V30Zm40-20V28h18V10ZM50,70H8V30H0V28H8V8H28V0h2V8H70V50H50ZM30,50V68H48V50ZM10,30V68H28V48H48V28H68V10H30V30Zm40,0V48H68V30ZM10,10V28H28V10Z"/>
              </g>
              <g id="temple_copy-7" data-name="temple copy" transform="translate(0 149)">
                <path id="Shape-26" data-name="Shape" d="M152,152H0v-2H28v-8H8V122H0v-2H8V80H50v20H70v42H30v8h90v-8H80V100h20V80h42v40h8V30h-8V70H100V50H80V8h40V0h2V8h20V28h8V0h2Zm-30-10v8h28V122h-8v20Zm0-20v18h18V122Zm-40,0v18h38V120h20V82H122v20H102v20ZM10,82v38H30v20H68V122H48V102H28V82Zm0,40v18H28V122Zm72-20v18h18V102Zm-32,0v18H68V102Zm52-20v18h18V82ZM30,82v18H48V82ZM82,10V28h20V48h20V68h18V30H120V10Zm20,40V68h18V50ZM82,30V48h18V30Zm40-20V28h18V10ZM50,70H8V30H0V28H8V8H28V0h2V8H70V50H50ZM30,50V68H48V50ZM10,30V68H28V48H48V28H68V10H30V30Zm40,0V48H68V30ZM10,10V28H28V10Z"/>
              </g>
              <g id="temple_copy_2-7" data-name="temple copy 2" transform="translate(152 149)">
                <path id="Shape-27" data-name="Shape" d="M152,152H0v-2H28v-8H8V122H0v-2H8V80H50v20H70v42H30v8h90v-8H80V100h20V80h42v40h8V30h-8V70H100V50H80V8h40V0h2V8h20V28h8V0h2Zm-30-10v8h28V122h-8v20Zm0-20v18h18V122Zm-40,0v18h38V120h20V82H122v20H102v20ZM10,82v38H30v20H68V122H48V102H28V82Zm0,40v18H28V122Zm72-20v18h18V102Zm-32,0v18H68V102Zm52-20v18h18V82ZM30,82v18H48V82ZM82,10V28h20V48h20V68h18V30H120V10Zm20,40V68h18V50ZM82,30V48h18V30Zm40-20V28h18V10ZM50,70H8V30H0V28H8V8H28V0h2V8H70V50H50ZM30,50V68H48V50ZM10,30V68H28V48H48V28H68V10H30V30Zm40,0V48H68V30ZM10,10V28H28V10Z"/>
              </g>
              <g id="temple_copy_3-7" data-name="temple copy 3" transform="translate(152)">
                <path id="Shape-28" data-name="Shape" d="M152,152H0v-2H28v-8H8V122H0v-2H8V80H50v20H70v42H30v8h90v-8H80V100h20V80h42v40h8V30h-8V70H100V50H80V8h40V0h2V8h20V28h8V0h2Zm-30-10v8h28V122h-8v20Zm0-20v18h18V122Zm-40,0v18h38V120h20V82H122v20H102v20ZM10,82v38H30v20H68V122H48V102H28V82Zm0,40v18H28V122Zm72-20v18h18V102Zm-32,0v18H68V102Zm52-20v18h18V82ZM30,82v18H48V82ZM82,10V28h20V48h20V68h18V30H120V10Zm20,40V68h18V50ZM82,30V48h18V30Zm40-20V28h18V10ZM50,70H8V30H0V28H8V8H28V0h2V8H70V50H50ZM30,50V68H48V50ZM10,30V68H28V48H48V28H68V10H30V30Zm40,0V48H68V30ZM10,10V28H28V10Z"/>
              </g>
            </g>
            <g id="Group_3_Copy_2-2" data-name="Group 3 Copy 2" transform="translate(608)">
              <g id="temple-8" data-name="temple">
                <path id="Shape-29" data-name="Shape" d="M152,152H0v-2H28v-8H8V122H0v-2H8V80H50v20H70v42H30v8h90v-8H80V100h20V80h42v40h8V30h-8V70H100V50H80V8h40V0h2V8h20V28h8V0h2Zm-30-10v8h28V122h-8v20Zm0-20v18h18V122Zm-40,0v18h38V120h20V82H122v20H102v20ZM10,82v38H30v20H68V122H48V102H28V82Zm0,40v18H28V122Zm72-20v18h18V102Zm-32,0v18H68V102Zm52-20v18h18V82ZM30,82v18H48V82ZM82,10V28h20V48h20V68h18V30H120V10Zm20,40V68h18V50ZM82,30V48h18V30Zm40-20V28h18V10ZM50,70H8V30H0V28H8V8H28V0h2V8H70V50H50ZM30,50V68H48V50ZM10,30V68H28V48H48V28H68V10H30V30Zm40,0V48H68V30ZM10,10V28H28V10Z"/>
              </g>
              <g id="temple_copy-8" data-name="temple copy" transform="translate(0 149)">
                <path id="Shape-30" data-name="Shape" d="M152,152H0v-2H28v-8H8V122H0v-2H8V80H50v20H70v42H30v8h90v-8H80V100h20V80h42v40h8V30h-8V70H100V50H80V8h40V0h2V8h20V28h8V0h2Zm-30-10v8h28V122h-8v20Zm0-20v18h18V122Zm-40,0v18h38V120h20V82H122v20H102v20ZM10,82v38H30v20H68V122H48V102H28V82Zm0,40v18H28V122Zm72-20v18h18V102Zm-32,0v18H68V102Zm52-20v18h18V82ZM30,82v18H48V82ZM82,10V28h20V48h20V68h18V30H120V10Zm20,40V68h18V50ZM82,30V48h18V30Zm40-20V28h18V10ZM50,70H8V30H0V28H8V8H28V0h2V8H70V50H50ZM30,50V68H48V50ZM10,30V68H28V48H48V28H68V10H30V30Zm40,0V48H68V30ZM10,10V28H28V10Z"/>
              </g>
              <g id="temple_copy_2-8" data-name="temple copy 2" transform="translate(152 149)">
                <path id="Shape-31" data-name="Shape" d="M152,152H0v-2H28v-8H8V122H0v-2H8V80H50v20H70v42H30v8h90v-8H80V100h20V80h42v40h8V30h-8V70H100V50H80V8h40V0h2V8h20V28h8V0h2Zm-30-10v8h28V122h-8v20Zm0-20v18h18V122Zm-40,0v18h38V120h20V82H122v20H102v20ZM10,82v38H30v20H68V122H48V102H28V82Zm0,40v18H28V122Zm72-20v18h18V102Zm-32,0v18H68V102Zm52-20v18h18V82ZM30,82v18H48V82ZM82,10V28h20V48h20V68h18V30H120V10Zm20,40V68h18V50ZM82,30V48h18V30Zm40-20V28h18V10ZM50,70H8V30H0V28H8V8H28V0h2V8H70V50H50ZM30,50V68H48V50ZM10,30V68H28V48H48V28H68V10H30V30Zm40,0V48H68V30ZM10,10V28H28V10Z"/>
              </g>
              <g id="temple_copy_3-8" data-name="temple copy 3" transform="translate(152)">
                <path id="Shape-32" data-name="Shape" d="M152,152H0v-2H28v-8H8V122H0v-2H8V80H50v20H70v42H30v8h90v-8H80V100h20V80h42v40h8V30h-8V70H100V50H80V8h40V0h2V8h20V28h8V0h2Zm-30-10v8h28V122h-8v20Zm0-20v18h18V122Zm-40,0v18h38V120h20V82H122v20H102v20ZM10,82v38H30v20H68V122H48V102H28V82Zm0,40v18H28V122Zm72-20v18h18V102Zm-32,0v18H68V102Zm52-20v18h18V82ZM30,82v18H48V82ZM82,10V28h20V48h20V68h18V30H120V10Zm20,40V68h18V50ZM82,30V48h18V30Zm40-20V28h18V10ZM50,70H8V30H0V28H8V8H28V0h2V8H70V50H50ZM30,50V68H48V50ZM10,30V68H28V48H48V28H68V10H30V30Zm40,0V48H68V30ZM10,10V28H28V10Z"/>
              </g>
            </g>
            <g id="Group_3_Copy_4-2" data-name="Group 3 Copy 4" transform="translate(1216)">
              <g id="temple-9" data-name="temple">
                <path id="Shape-33" data-name="Shape" d="M152,152H0v-2H28v-8H8V122H0v-2H8V80H50v20H70v42H30v8h90v-8H80V100h20V80h42v40h8V30h-8V70H100V50H80V8h40V0h2V8h20V28h8V0h2Zm-30-10v8h28V122h-8v20Zm0-20v18h18V122Zm-40,0v18h38V120h20V82H122v20H102v20ZM10,82v38H30v20H68V122H48V102H28V82Zm0,40v18H28V122Zm72-20v18h18V102Zm-32,0v18H68V102Zm52-20v18h18V82ZM30,82v18H48V82ZM82,10V28h20V48h20V68h18V30H120V10Zm20,40V68h18V50ZM82,30V48h18V30Zm40-20V28h18V10ZM50,70H8V30H0V28H8V8H28V0h2V8H70V50H50ZM30,50V68H48V50ZM10,30V68H28V48H48V28H68V10H30V30Zm40,0V48H68V30ZM10,10V28H28V10Z"/>
              </g>
              <g id="temple_copy-9" data-name="temple copy" transform="translate(0 149)">
                <path id="Shape-34" data-name="Shape" d="M152,152H0v-2H28v-8H8V122H0v-2H8V80H50v20H70v42H30v8h90v-8H80V100h20V80h42v40h8V30h-8V70H100V50H80V8h40V0h2V8h20V28h8V0h2Zm-30-10v8h28V122h-8v20Zm0-20v18h18V122Zm-40,0v18h38V120h20V82H122v20H102v20ZM10,82v38H30v20H68V122H48V102H28V82Zm0,40v18H28V122Zm72-20v18h18V102Zm-32,0v18H68V102Zm52-20v18h18V82ZM30,82v18H48V82ZM82,10V28h20V48h20V68h18V30H120V10Zm20,40V68h18V50ZM82,30V48h18V30Zm40-20V28h18V10ZM50,70H8V30H0V28H8V8H28V0h2V8H70V50H50ZM30,50V68H48V50ZM10,30V68H28V48H48V28H68V10H30V30Zm40,0V48H68V30ZM10,10V28H28V10Z"/>
              </g>
              <g id="temple_copy_2-9" data-name="temple copy 2" transform="translate(152 149)">
                <path id="Shape-35" data-name="Shape" d="M152,152H0v-2H28v-8H8V122H0v-2H8V80H50v20H70v42H30v8h90v-8H80V100h20V80h42v40h8V30h-8V70H100V50H80V8h40V0h2V8h20V28h8V0h2Zm-30-10v8h28V122h-8v20Zm0-20v18h18V122Zm-40,0v18h38V120h20V82H122v20H102v20ZM10,82v38H30v20H68V122H48V102H28V82Zm0,40v18H28V122Zm72-20v18h18V102Zm-32,0v18H68V102Zm52-20v18h18V82ZM30,82v18H48V82ZM82,10V28h20V48h20V68h18V30H120V10Zm20,40V68h18V50ZM82,30V48h18V30Zm40-20V28h18V10ZM50,70H8V30H0V28H8V8H28V0h2V8H70V50H50ZM30,50V68H48V50ZM10,30V68H28V48H48V28H68V10H30V30Zm40,0V48H68V30ZM10,10V28H28V10Z"/>
              </g>
              <g id="temple_copy_3-9" data-name="temple copy 3" transform="translate(152)">
                <path id="Shape-36" data-name="Shape" d="M152,152H0v-2H28v-8H8V122H0v-2H8V80H50v20H70v42H30v8h90v-8H80V100h20V80h42v40h8V30h-8V70H100V50H80V8h40V0h2V8h20V28h8V0h2Zm-30-10v8h28V122h-8v20Zm0-20v18h18V122Zm-40,0v18h38V120h20V82H122v20H102v20ZM10,82v38H30v20H68V122H48V102H28V82Zm0,40v18H28V122Zm72-20v18h18V102Zm-32,0v18H68V102Zm52-20v18h18V82ZM30,82v18H48V82ZM82,10V28h20V48h20V68h18V30H120V10Zm20,40V68h18V50ZM82,30V48h18V30Zm40-20V28h18V10ZM50,70H8V30H0V28H8V8H28V0h2V8H70V50H50ZM30,50V68H48V50ZM10,30V68H28V48H48V28H68V10H30V30Zm40,0V48H68V30ZM10,10V28H28V10Z"/>
              </g>
            </g>
            <g id="Group_3_Copy-2" data-name="Group 3 Copy" transform="translate(304 1)">
              <g id="temple-10" data-name="temple">
                <path id="Shape-37" data-name="Shape" d="M152,152H0v-2H28v-8H8V122H0v-2H8V80H50v20H70v42H30v8h90v-8H80V100h20V80h42v40h8V30h-8V70H100V50H80V8h40V0h2V8h20V28h8V0h2Zm-30-10v8h28V122h-8v20Zm0-20v18h18V122Zm-40,0v18h38V120h20V82H122v20H102v20ZM10,82v38H30v20H68V122H48V102H28V82Zm0,40v18H28V122Zm72-20v18h18V102Zm-32,0v18H68V102Zm52-20v18h18V82ZM30,82v18H48V82ZM82,10V28h20V48h20V68h18V30H120V10Zm20,40V68h18V50ZM82,30V48h18V30Zm40-20V28h18V10ZM50,70H8V30H0V28H8V8H28V0h2V8H70V50H50ZM30,50V68H48V50ZM10,30V68H28V48H48V28H68V10H30V30Zm40,0V48H68V30ZM10,10V28H28V10Z"/>
              </g>
              <g id="temple_copy-10" data-name="temple copy" transform="translate(0 149)">
                <path id="Shape-38" data-name="Shape" d="M152,152H0v-2H28v-8H8V122H0v-2H8V80H50v20H70v42H30v8h90v-8H80V100h20V80h42v40h8V30h-8V70H100V50H80V8h40V0h2V8h20V28h8V0h2Zm-30-10v8h28V122h-8v20Zm0-20v18h18V122Zm-40,0v18h38V120h20V82H122v20H102v20ZM10,82v38H30v20H68V122H48V102H28V82Zm0,40v18H28V122Zm72-20v18h18V102Zm-32,0v18H68V102Zm52-20v18h18V82ZM30,82v18H48V82ZM82,10V28h20V48h20V68h18V30H120V10Zm20,40V68h18V50ZM82,30V48h18V30Zm40-20V28h18V10ZM50,70H8V30H0V28H8V8H28V0h2V8H70V50H50ZM30,50V68H48V50ZM10,30V68H28V48H48V28H68V10H30V30Zm40,0V48H68V30ZM10,10V28H28V10Z"/>
              </g>
              <g id="temple_copy_2-10" data-name="temple copy 2" transform="translate(152 149)">
                <path id="Shape-39" data-name="Shape" d="M152,152H0v-2H28v-8H8V122H0v-2H8V80H50v20H70v42H30v8h90v-8H80V100h20V80h42v40h8V30h-8V70H100V50H80V8h40V0h2V8h20V28h8V0h2Zm-30-10v8h28V122h-8v20Zm0-20v18h18V122Zm-40,0v18h38V120h20V82H122v20H102v20ZM10,82v38H30v20H68V122H48V102H28V82Zm0,40v18H28V122Zm72-20v18h18V102Zm-32,0v18H68V102Zm52-20v18h18V82ZM30,82v18H48V82ZM82,10V28h20V48h20V68h18V30H120V10Zm20,40V68h18V50ZM82,30V48h18V30Zm40-20V28h18V10ZM50,70H8V30H0V28H8V8H28V0h2V8H70V50H50ZM30,50V68H48V50ZM10,30V68H28V48H48V28H68V10H30V30Zm40,0V48H68V30ZM10,10V28H28V10Z"/>
              </g>
              <g id="temple_copy_3-10" data-name="temple copy 3" transform="translate(152)">
                <path id="Shape-40" data-name="Shape" d="M152,152H0v-2H28v-8H8V122H0v-2H8V80H50v20H70v42H30v8h90v-8H80V100h20V80h42v40h8V30h-8V70H100V50H80V8h40V0h2V8h20V28h8V0h2Zm-30-10v8h28V122h-8v20Zm0-20v18h18V122Zm-40,0v18h38V120h20V82H122v20H102v20ZM10,82v38H30v20H68V122H48V102H28V82Zm0,40v18H28V122Zm72-20v18h18V102Zm-32,0v18H68V102Zm52-20v18h18V82ZM30,82v18H48V82ZM82,10V28h20V48h20V68h18V30H120V10Zm20,40V68h18V50ZM82,30V48h18V30Zm40-20V28h18V10ZM50,70H8V30H0V28H8V8H28V0h2V8H70V50H50ZM30,50V68H48V50ZM10,30V68H28V48H48V28H68V10H30V30Zm40,0V48H68V30ZM10,10V28H28V10Z"/>
              </g>
            </g>
            <g id="Group_3_Copy_3-2" data-name="Group 3 Copy 3" transform="translate(912)">
              <g id="temple-11" data-name="temple">
                <path id="Shape-41" data-name="Shape" d="M152,152H0v-2H28v-8H8V122H0v-2H8V80H50v20H70v42H30v8h90v-8H80V100h20V80h42v40h8V30h-8V70H100V50H80V8h40V0h2V8h20V28h8V0h2Zm-30-10v8h28V122h-8v20Zm0-20v18h18V122Zm-40,0v18h38V120h20V82H122v20H102v20ZM10,82v38H30v20H68V122H48V102H28V82Zm0,40v18H28V122Zm72-20v18h18V102Zm-32,0v18H68V102Zm52-20v18h18V82ZM30,82v18H48V82ZM82,10V28h20V48h20V68h18V30H120V10Zm20,40V68h18V50ZM82,30V48h18V30Zm40-20V28h18V10ZM50,70H8V30H0V28H8V8H28V0h2V8H70V50H50ZM30,50V68H48V50ZM10,30V68H28V48H48V28H68V10H30V30Zm40,0V48H68V30ZM10,10V28H28V10Z"/>
              </g>
              <g id="temple_copy-11" data-name="temple copy" transform="translate(0 149)">
                <path id="Shape-42" data-name="Shape" d="M152,152H0v-2H28v-8H8V122H0v-2H8V80H50v20H70v42H30v8h90v-8H80V100h20V80h42v40h8V30h-8V70H100V50H80V8h40V0h2V8h20V28h8V0h2Zm-30-10v8h28V122h-8v20Zm0-20v18h18V122Zm-40,0v18h38V120h20V82H122v20H102v20ZM10,82v38H30v20H68V122H48V102H28V82Zm0,40v18H28V122Zm72-20v18h18V102Zm-32,0v18H68V102Zm52-20v18h18V82ZM30,82v18H48V82ZM82,10V28h20V48h20V68h18V30H120V10Zm20,40V68h18V50ZM82,30V48h18V30Zm40-20V28h18V10ZM50,70H8V30H0V28H8V8H28V0h2V8H70V50H50ZM30,50V68H48V50ZM10,30V68H28V48H48V28H68V10H30V30Zm40,0V48H68V30ZM10,10V28H28V10Z"/>
              </g>
              <g id="temple_copy_2-11" data-name="temple copy 2" transform="translate(152 149)">
                <path id="Shape-43" data-name="Shape" d="M152,152H0v-2H28v-8H8V122H0v-2H8V80H50v20H70v42H30v8h90v-8H80V100h20V80h42v40h8V30h-8V70H100V50H80V8h40V0h2V8h20V28h8V0h2Zm-30-10v8h28V122h-8v20Zm0-20v18h18V122Zm-40,0v18h38V120h20V82H122v20H102v20ZM10,82v38H30v20H68V122H48V102H28V82Zm0,40v18H28V122Zm72-20v18h18V102Zm-32,0v18H68V102Zm52-20v18h18V82ZM30,82v18H48V82ZM82,10V28h20V48h20V68h18V30H120V10Zm20,40V68h18V50ZM82,30V48h18V30Zm40-20V28h18V10ZM50,70H8V30H0V28H8V8H28V0h2V8H70V50H50ZM30,50V68H48V50ZM10,30V68H28V48H48V28H68V10H30V30Zm40,0V48H68V30ZM10,10V28H28V10Z"/>
              </g>
              <g id="temple_copy_3-11" data-name="temple copy 3" transform="translate(152)">
                <path id="Shape-44" data-name="Shape" d="M152,152H0v-2H28v-8H8V122H0v-2H8V80H50v20H70v42H30v8h90v-8H80V100h20V80h42v40h8V30h-8V70H100V50H80V8h40V0h2V8h20V28h8V0h2Zm-30-10v8h28V122h-8v20Zm0-20v18h18V122Zm-40,0v18h38V120h20V82H122v20H102v20ZM10,82v38H30v20H68V122H48V102H28V82Zm0,40v18H28V122Zm72-20v18h18V102Zm-32,0v18H68V102Zm52-20v18h18V82ZM30,82v18H48V82ZM82,10V28h20V48h20V68h18V30H120V10Zm20,40V68h18V50ZM82,30V48h18V30Zm40-20V28h18V10ZM50,70H8V30H0V28H8V8H28V0h2V8H70V50H50ZM30,50V68H48V50ZM10,30V68H28V48H48V28H68V10H30V30Zm40,0V48H68V30ZM10,10V28H28V10Z"/>
              </g>
            </g>
            <g id="Group_3_Copy_5-2" data-name="Group 3 Copy 5" transform="translate(1520)">
              <g id="temple-12" data-name="temple">
                <path id="Shape-45" data-name="Shape" d="M152,152H0v-2H28v-8H8V122H0v-2H8V80H50v20H70v42H30v8h90v-8H80V100h20V80h42v40h8V30h-8V70H100V50H80V8h40V0h2V8h20V28h8V0h2Zm-30-10v8h28V122h-8v20Zm0-20v18h18V122Zm-40,0v18h38V120h20V82H122v20H102v20ZM10,82v38H30v20H68V122H48V102H28V82Zm0,40v18H28V122Zm72-20v18h18V102Zm-32,0v18H68V102Zm52-20v18h18V82ZM30,82v18H48V82ZM82,10V28h20V48h20V68h18V30H120V10Zm20,40V68h18V50ZM82,30V48h18V30Zm40-20V28h18V10ZM50,70H8V30H0V28H8V8H28V0h2V8H70V50H50ZM30,50V68H48V50ZM10,30V68H28V48H48V28H68V10H30V30Zm40,0V48H68V30ZM10,10V28H28V10Z"/>
              </g>
              <g id="temple_copy-12" data-name="temple copy" transform="translate(0 149)">
                <path id="Shape-46" data-name="Shape" d="M152,152H0v-2H28v-8H8V122H0v-2H8V80H50v20H70v42H30v8h90v-8H80V100h20V80h42v40h8V30h-8V70H100V50H80V8h40V0h2V8h20V28h8V0h2Zm-30-10v8h28V122h-8v20Zm0-20v18h18V122Zm-40,0v18h38V120h20V82H122v20H102v20ZM10,82v38H30v20H68V122H48V102H28V82Zm0,40v18H28V122Zm72-20v18h18V102Zm-32,0v18H68V102Zm52-20v18h18V82ZM30,82v18H48V82ZM82,10V28h20V48h20V68h18V30H120V10Zm20,40V68h18V50ZM82,30V48h18V30Zm40-20V28h18V10ZM50,70H8V30H0V28H8V8H28V0h2V8H70V50H50ZM30,50V68H48V50ZM10,30V68H28V48H48V28H68V10H30V30Zm40,0V48H68V30ZM10,10V28H28V10Z"/>
              </g>
              <g id="temple_copy_2-12" data-name="temple copy 2" transform="translate(152 149)">
                <path id="Shape-47" data-name="Shape" d="M152,152H0v-2H28v-8H8V122H0v-2H8V80H50v20H70v42H30v8h90v-8H80V100h20V80h42v40h8V30h-8V70H100V50H80V8h40V0h2V8h20V28h8V0h2Zm-30-10v8h28V122h-8v20Zm0-20v18h18V122Zm-40,0v18h38V120h20V82H122v20H102v20ZM10,82v38H30v20H68V122H48V102H28V82Zm0,40v18H28V122Zm72-20v18h18V102Zm-32,0v18H68V102Zm52-20v18h18V82ZM30,82v18H48V82ZM82,10V28h20V48h20V68h18V30H120V10Zm20,40V68h18V50ZM82,30V48h18V30Zm40-20V28h18V10ZM50,70H8V30H0V28H8V8H28V0h2V8H70V50H50ZM30,50V68H48V50ZM10,30V68H28V48H48V28H68V10H30V30Zm40,0V48H68V30ZM10,10V28H28V10Z"/>
              </g>
              <g id="temple_copy_3-12" data-name="temple copy 3" transform="translate(152)">
                <path id="Shape-48" data-name="Shape" d="M152,152H0v-2H28v-8H8V122H0v-2H8V80H50v20H70v42H30v8h90v-8H80V100h20V80h42v40h8V30h-8V70H100V50H80V8h40V0h2V8h20V28h8V0h2Zm-30-10v8h28V122h-8v20Zm0-20v18h18V122Zm-40,0v18h38V120h20V82H122v20H102v20ZM10,82v38H30v20H68V122H48V102H28V82Zm0,40v18H28V122Zm72-20v18h18V102Zm-32,0v18H68V102Zm52-20v18h18V82ZM30,82v18H48V82ZM82,10V28h20V48h20V68h18V30H120V10Zm20,40V68h18V50ZM82,30V48h18V30Zm40-20V28h18V10ZM50,70H8V30H0V28H8V8H28V0h2V8H70V50H50ZM30,50V68H48V50ZM10,30V68H28V48H48V28H68V10H30V30Zm40,0V48H68V30ZM10,10V28H28V10Z"/>
              </g>
            </g>
          </g>
        </g>
      </g>
    </g>
  </g>
</svg>
