<svg id="round-arrow" xmlns="http://www.w3.org/2000/svg" width="21" height="21" viewBox="0 0 21 21">
  <path id="Shape" d="M10.5,21A10.5,10.5,0,0,1,3.075,3.075a10.5,10.5,0,0,1,14.85,14.85A10.431,10.431,0,0,1,10.5,21Zm0-18.968A8.468,8.468,0,1,0,18.968,10.5,8.478,8.478,0,0,0,10.5,2.032Zm.512,13.17a.523.523,0,0,1-.354-.14.5.5,0,0,1-.158-.37V11.855H5.589a.509.509,0,0,1-.509-.508V9.653a.509.509,0,0,1,.509-.509H10.5V6.308a.508.508,0,0,1,.868-.359l4.191,4.191a.511.511,0,0,1,0,.72l-4.191,4.191A.5.5,0,0,1,11.012,15.2Z" fill="#9798a7"/>
</svg>
