<svg xmlns="http://www.w3.org/2000/svg" width="36.6" height="42.001" viewBox="0 0 36.6 42.001">
  <g id="watches" transform="translate(-68 -553)">
    <g id="watch-3_copy" data-name="watch-3 copy" transform="translate(68 553)">
      <path id="Shape" d="M29.145,42H27.789V36.635A18.271,18.271,0,0,1,6.1,34.618V42H4.745V33.274a18.248,18.248,0,0,1,0-24.548V0H6.1V7.382A18.271,18.271,0,0,1,27.789,5.366V0h1.355V6.278c.467.344.923.716,1.355,1.1V0h1.355V8.726a18.248,18.248,0,0,1,0,24.548V42H30.5V34.618c-.438.393-.895.764-1.355,1.1V42ZM18.3,4.064A16.936,16.936,0,1,0,35.244,21,16.959,16.959,0,0,0,18.3,4.064Z" fill="#fff"/>
    </g>
    <g id="watch-5" transform="translate(70 558)">
      <path id="Path" d="M15.484,0A15.484,15.484,0,1,0,28.651,23.634l-1.315-.816a14.111,14.111,0,0,1-1.467,1.956L23.695,22.6,22.6,23.695l2.175,2.175a13.825,13.825,0,0,1-8.518,3.524V26.323H14.71V29.38a13.855,13.855,0,0,1-8.5-3.526l2.159-2.159L7.273,22.6,5.114,24.759a13.859,13.859,0,0,1-3.526-8.5H4.645V14.71H1.588a13.855,13.855,0,0,1,3.526-8.5L7.273,8.367,8.367,7.273,6.208,5.114a13.859,13.859,0,0,1,8.5-3.526V4.645h1.548V1.588a13.855,13.855,0,0,1,8.5,3.526L22.6,7.273l1.095,1.095,2.159-2.159a13.859,13.859,0,0,1,3.526,8.5H26.323v1.548H29.4a13.766,13.766,0,0,1-1.444,5.455l1.384.694a15.332,15.332,0,0,0,1.63-6.923A15.5,15.5,0,0,0,15.484,0Z" transform="translate(0.811 0.516)" fill="#fff"/>
      <path id="Path-2" data-name="Path" d="M1.095,2.323,0,3.417,3.644,7.061,9.611,1.095,8.516,0,3.644,4.872Z" transform="translate(12.651 10.033)" fill="#fff"/>
    </g>
  </g>
</svg>
