<svg xmlns="http://www.w3.org/2000/svg" width="36.6" height="42.001" viewBox="0 0 36.6 42.001">
  <g id="watch-styles" transform="translate(-308 -553)">
    <path id="Shape" d="M29.145,42H27.789V36.635A18.271,18.271,0,0,1,6.1,34.618V42H4.745V33.274a18.248,18.248,0,0,1,0-24.548V0H6.1V7.382A18.271,18.271,0,0,1,27.789,5.366V0h1.355V6.278c.467.344.923.716,1.355,1.1V0h1.355V8.726a18.248,18.248,0,0,1,0,24.548V42H30.5V34.618c-.438.393-.895.764-1.355,1.1V42ZM18.3,4.064A16.936,16.936,0,1,0,35.244,21,16.959,16.959,0,0,0,18.3,4.064Z" transform="translate(308 553)" fill="#fff"/>
    <path id="Path" d="M28.677,24.109a15.624,15.624,0,1,0-1.043,1.418l-1.047-.863a14.19,14.19,0,1,1,.953-1.295Z" transform="translate(311 558.4)" fill="#fff"/>
    <path id="Shape-2" data-name="Shape" d="M10.012,11.4A2.048,2.048,0,0,1,7.965,9.356a2.023,2.023,0,0,1,.17-.811L0,1,.928,0,9.069,7.553a2.018,2.018,0,0,1,.942-.24,2.041,2.041,0,0,1,1.368.534l7.175-3.859.645,1.2L12.026,9.046l0,.013a1.989,1.989,0,0,1,.029.3A2.047,2.047,0,0,1,10.012,11.4Zm0-2.725a.681.681,0,1,0,.681.681A.683.683,0,0,0,10.012,8.675Z" transform="translate(316.4 564.4)" fill="#fff"/>
    <path id="Shape-3" data-name="Shape" d="M4.8,9.6A4.8,4.8,0,1,1,9.6,4.8,4.806,4.806,0,0,1,4.8,9.6Zm0-8.229A3.429,3.429,0,1,0,8.229,4.8,3.432,3.432,0,0,0,4.8,1.372Z" transform="translate(314.6 574.6)" fill="#fff"/>
    <path id="Shape-4" data-name="Shape" d="M4.8,9.6A4.8,4.8,0,1,1,9.6,4.8,4.806,4.806,0,0,1,4.8,9.6Zm0-8.229A3.429,3.429,0,1,0,8.229,4.8,3.432,3.432,0,0,0,4.8,1.372Z" transform="translate(328.4 574.6)" fill="#fff"/>
  </g>
</svg>
