<svg xmlns="http://www.w3.org/2000/svg" width="40" height="42" viewBox="0 0 40 42">
  <g id="watch-brands" transform="translate(-419 -553)">
    <path id="Shape" d="M11.516,42H6.1A3.391,3.391,0,0,1,2.71,38.613V5.42H1.355A1.356,1.356,0,0,1,0,4.064V1.355A1.356,1.356,0,0,1,1.355,0h14.9a1.356,1.356,0,0,1,1.354,1.354v2.71A1.356,1.356,0,0,1,16.259,5.42H14.9V38.613A3.391,3.391,0,0,1,11.516,42ZM4.064,5.42V38.613A2.035,2.035,0,0,0,6.1,40.645h5.42a2.035,2.035,0,0,0,2.032-2.032V5.42H12.193V4.064h4.065V1.355H1.355v2.71h9.484V5.42Z" transform="translate(419 553)" fill="#fff"/>
    <rect id="Rectangle" width="4.065" height="1.355" transform="translate(425.774 577.387)" fill="#fff"/>
    <rect id="Rectangle-2" data-name="Rectangle" width="4.065" height="1.355" transform="translate(425.774 581.452)" fill="#fff"/>
    <rect id="Rectangle-3" data-name="Rectangle" width="4.065" height="1.355" transform="translate(425.774 585.516)" fill="#fff"/>
    <rect id="Rectangle-4" data-name="Rectangle" width="4.065" height="1.355" transform="translate(425.774 589.581)" fill="#fff"/>
    <path id="Shape-2" data-name="Shape" d="M14.225,42H3.387A3.391,3.391,0,0,1,0,38.613V29.129A3.4,3.4,0,0,1,2.71,25.81V23.032a1.357,1.357,0,0,1-1.355-1.354v-2.71A1.356,1.356,0,0,1,2.71,17.613V5.42H1.355A1.356,1.356,0,0,1,0,4.064V2.71A1.356,1.356,0,0,1,1.355,1.355h1.48A2.036,2.036,0,0,1,4.742,0h8.129a2.036,2.036,0,0,1,1.908,1.354h1.48A1.356,1.356,0,0,1,17.613,2.71V4.064A1.356,1.356,0,0,1,16.259,5.42H14.9V17.613a1.357,1.357,0,0,1,1.355,1.354v2.71A1.356,1.356,0,0,1,14.9,23.032V25.81a3.4,3.4,0,0,1,2.71,3.319v9.483A3.391,3.391,0,0,1,14.225,42ZM2.71,27.221a2.036,2.036,0,0,0-1.355,1.908v9.483a2.035,2.035,0,0,0,2.032,2.032H14.225a2.035,2.035,0,0,0,2.033-2.032V29.129A2.036,2.036,0,0,0,14.9,27.221V37.936a1.356,1.356,0,0,1-1.354,1.354H4.064A1.356,1.356,0,0,1,2.71,37.936V27.221Zm8.129,5.295v5.42h2.71v-5.42ZM8.807,31.162a.678.678,0,0,0-.678.677v6.1H9.484v-6.1A.678.678,0,0,0,8.807,31.162ZM4.064,32.516v5.42h2.71v-5.42Zm4.742-2.71a2.036,2.036,0,0,1,1.908,1.355h2.834v-8.13H12.193V21.677H14.9v-2.71H2.71v2.71h8.129v1.354H4.064v8.13H6.9A2.036,2.036,0,0,1,8.807,29.806ZM4.742,1.355a.678.678,0,0,0-.678.678V17.613h9.484V2.032a.678.678,0,0,0-.678-.678ZM14.9,2.71V4.064h1.355V2.71Zm-13.549,0V4.064H2.71V2.71Z" transform="translate(441.387 553)" fill="#fff"/>
  </g>
</svg>
