<svg xmlns="http://www.w3.org/2000/svg" width="36.6" height="42.001" viewBox="0 0 36.6 42.001">
  <g id="watch-features" transform="translate(-188 -553)">
    <path id="Shape" d="M15.581,29.129A15.65,15.65,0,0,1,.163,15.792L.078,15.2,1.2,14.9A7.452,7.452,0,0,1,7.452,3.387a7.492,7.492,0,0,1,5.984,3.025c.193-.058.394-.1.565-.141.073-.2.154-.4.24-.585l-1.207-.7.678-1.174,1.206.7a7.528,7.528,0,0,1,1.793-1.78l-.7-1.214L17.184.841l.7,1.212a7.408,7.408,0,0,1,2.439-.664V0h1.354V1.389a7.383,7.383,0,0,1,2.443.659l.7-1.207,1.174.678-.7,1.208A7.492,7.492,0,0,1,27.08,4.514l1.208-.7.677,1.173-1.207.7a7.394,7.394,0,0,1,.66,2.442h1.389V9.484H28.414a7.367,7.367,0,0,1-.652,2.443l1.205.7L28.289,13.8l-1.209-.7a7.55,7.55,0,0,1-.665.8l4.677,1.212-.084.6a15.533,15.533,0,0,1-3.4,7.74l-1.046-.86a14.232,14.232,0,0,0,3.01-6.472l-7.894-2.047v-.524a6.1,6.1,0,1,0-12.193,0v.519L2.133,16.047l-.006.005-.525.137a14.225,14.225,0,0,0,24.383,7.06l.991.923A15.632,15.632,0,0,1,15.581,29.129ZM7.452,4.742a6.1,6.1,0,0,0-6.1,6.1A6.029,6.029,0,0,0,2.6,14.519l1.45-.391a4.736,4.736,0,1,1,6.941-6.443,7.542,7.542,0,0,1,1.142-.738A6.088,6.088,0,0,0,7.452,4.742ZM21,6.1a2.713,2.713,0,0,1,2.71,2.71A2.663,2.663,0,0,1,22.58,11a7.406,7.406,0,0,1,.434,2.023l1.85.48A6.081,6.081,0,0,0,21,2.71,6.151,6.151,0,0,0,15.543,6.1h.038a7.46,7.46,0,0,1,3.458.854A2.7,2.7,0,0,1,21,6.1ZM7.639,11.778,6.515,13.464l1.633-.439a7.181,7.181,0,0,1,.11-.834l-.618-.412ZM4.318,9.563a3.356,3.356,0,0,0,.732,3.656l1.463-2.192ZM9.852,8.458,8.391,10.652l.259.172A7.444,7.444,0,0,1,10,8.613c-.036-.042-.076-.081-.114-.119Zm-2.4-1.006a3.363,3.363,0,0,0-2.383.984L7.264,9.9,8.728,7.7A3.367,3.367,0,0,0,7.452,7.452ZM21,7.452a1.325,1.325,0,0,0-.784.27,7.47,7.47,0,0,1,1.757,2,1.328,1.328,0,0,0,.382-.918A1.356,1.356,0,0,0,21,7.452Z" transform="translate(190.71 560.452)" fill="#000"/>
    <path id="Shape-2" data-name="Shape" d="M3.387,6.774A3.387,3.387,0,1,1,6.774,3.387,3.391,3.391,0,0,1,3.387,6.774Zm0-5.42A2.033,2.033,0,1,0,5.42,3.387,2.035,2.035,0,0,0,3.387,1.355Z" transform="translate(202.903 570.613)" fill="#000"/>
    <path id="Shape-3" data-name="Shape" d="M29.145,42H27.789V36.635A18.271,18.271,0,0,1,6.1,34.618V42H4.745V33.274a18.248,18.248,0,0,1,0-24.548V0H6.1V7.382A18.271,18.271,0,0,1,27.789,5.366V0h1.355V6.278c.467.344.923.716,1.355,1.1V0h1.355V8.726a18.248,18.248,0,0,1,0,24.548V42H30.5V34.618c-.438.393-.895.764-1.355,1.1V42ZM18.3,4.064A16.936,16.936,0,1,0,35.244,21,16.959,16.959,0,0,0,18.3,4.064Z" transform="translate(188 553)" fill="#000"/>
  </g>
</svg>
